<mxfile host="Electron" modified="2023-12-20T10:33:12.476Z" agent="Mozilla/5.0 (X11; Linux x86_64) AppleWebKit/537.36 (KHTML, like Gecko) draw.io/22.1.11 Chrome/114.0.5735.289 Electron/25.9.8 Safari/537.36" version="22.1.11" etag="Srxx7bOmrLmgf_cTXZDl" type="device">
  <diagram id="tes6gjWIuB-Xw_XX2HSq" name="Legend">
    <mxGraphModel dx="926" dy="291" grid="1" gridSize="10" guides="1" tooltips="1" connect="1" arrows="1" fold="1" page="1" pageScale="1" pageWidth="1100" pageHeight="850" math="0" shadow="0">
      <root>
        <mxCell id="0" />
        <mxCell id="1" parent="0" />
        <mxCell id="unwxUYylMrVXpR_ENPoR-2" value="Legend" style="swimlane;html=1;childLayout=stackLayout;resizeParent=1;resizeParentMax=0;horizontal=1;startSize=20;horizontalStack=0;whiteSpace=wrap;" parent="1" vertex="1" collapsed="1">
          <mxGeometry x="40" y="46" width="80" height="30" as="geometry">
            <mxRectangle x="40" y="46" width="820" height="570" as="alternateBounds" />
          </mxGeometry>
        </mxCell>
        <mxCell id="unwxUYylMrVXpR_ENPoR-3" value="event flow" style="swimlane;html=1;startSize=20;horizontal=0;" parent="unwxUYylMrVXpR_ENPoR-2" vertex="1">
          <mxGeometry y="20" width="820" height="310" as="geometry" />
        </mxCell>
        <mxCell id="UwBjlf0i4u52B0KEvU_Y-1" value="process" style="shape=process;whiteSpace=wrap;html=1;backgroundOutline=1;" parent="unwxUYylMrVXpR_ENPoR-3" vertex="1">
          <mxGeometry x="52.5" y="30" width="120" height="60" as="geometry" />
        </mxCell>
        <mxCell id="ZTVlnvCu1oPu2bua0lhl-1" value="start/end" style="ellipse;whiteSpace=wrap;html=1;" parent="unwxUYylMrVXpR_ENPoR-3" vertex="1">
          <mxGeometry x="210" y="30" width="115" height="50" as="geometry" />
        </mxCell>
        <mxCell id="ZTVlnvCu1oPu2bua0lhl-2" value="Method" style="whiteSpace=wrap;html=1;rounded=0;" parent="unwxUYylMrVXpR_ENPoR-3" vertex="1">
          <mxGeometry x="360" y="25" width="130" height="60" as="geometry" />
        </mxCell>
        <mxCell id="ZTVlnvCu1oPu2bua0lhl-6" value="Gate" style="rhombus;whiteSpace=wrap;html=1;" parent="unwxUYylMrVXpR_ENPoR-3" vertex="1">
          <mxGeometry x="640" y="123.5" width="82.73" height="73" as="geometry" />
        </mxCell>
        <mxCell id="ZTVlnvCu1oPu2bua0lhl-7" value="&lt;span style=&quot;font-family: Helvetica; font-size: 12px; font-style: normal; font-variant-ligatures: normal; font-variant-caps: normal; font-weight: 400; letter-spacing: normal; orphans: 2; text-align: center; text-indent: 0px; text-transform: none; widows: 2; word-spacing: 0px; -webkit-text-stroke-width: 0px; text-decoration-thickness: initial; text-decoration-style: initial; text-decoration-color: initial; float: none; display: inline !important;&quot;&gt;Helper&lt;/span&gt;" style="shape=delay;whiteSpace=wrap;html=1;rounded=0;" parent="unwxUYylMrVXpR_ENPoR-3" vertex="1">
          <mxGeometry x="552.73" y="40" width="170" height="40" as="geometry" />
        </mxCell>
        <mxCell id="ZTVlnvCu1oPu2bua0lhl-5" value="&lt;span style=&quot;font-family: Helvetica; font-size: 12px; font-style: normal; font-variant-ligatures: normal; font-variant-caps: normal; font-weight: 400; letter-spacing: normal; orphans: 2; text-align: center; text-indent: 0px; text-transform: none; widows: 2; word-spacing: 0px; -webkit-text-stroke-width: 0px; text-decoration-thickness: initial; text-decoration-style: initial; text-decoration-color: initial; float: none; background-color: rgb(255, 255, 255); display: inline !important;&quot;&gt;&lt;font color=&quot;#000000&quot;&gt;plain Python&lt;/font&gt;&lt;/span&gt;" style="shape=parallelogram;perimeter=parallelogramPerimeter;whiteSpace=wrap;html=1;fixedSize=1;" parent="unwxUYylMrVXpR_ENPoR-3" vertex="1">
          <mxGeometry x="50" y="130" width="160" height="60" as="geometry" />
        </mxCell>
        <mxCell id="unwxUYylMrVXpR_ENPoR-1" value="external signals" style="shape=trapezoid;perimeter=trapezoidPerimeter;whiteSpace=wrap;html=1;fixedSize=1;" parent="unwxUYylMrVXpR_ENPoR-3" vertex="1">
          <mxGeometry x="270" y="130" width="120" height="60" as="geometry" />
        </mxCell>
        <mxCell id="jUpPP1JXqRc3SLJDzfIx-1" value="" style="edgeStyle=orthogonalEdgeStyle;rounded=0;jumpStyle=arc;orthogonalLoop=1;jettySize=auto;html=1;fontFamily=Helvetica;fontSize=12;fontColor=#FFFFFF;" parent="unwxUYylMrVXpR_ENPoR-3" edge="1">
          <mxGeometry relative="1" as="geometry">
            <mxPoint x="450.0000000000002" y="158.99999999999977" as="sourcePoint" />
            <mxPoint x="520.0000000000002" y="158.99999999999977" as="targetPoint" />
          </mxGeometry>
        </mxCell>
        <mxCell id="jUpPP1JXqRc3SLJDzfIx-2" value="Chronological Sequence" style="text;html=1;strokeColor=none;fillColor=none;align=center;verticalAlign=middle;whiteSpace=wrap;rounded=0;labelBackgroundColor=#FFFFFF;fontFamily=Helvetica;fontSize=12;fontColor=#000000;" parent="unwxUYylMrVXpR_ENPoR-3" vertex="1">
          <mxGeometry x="519" y="145" width="81" height="30" as="geometry" />
        </mxCell>
        <mxCell id="2" value="shared ressource" style="shape=step;perimeter=stepPerimeter;whiteSpace=wrap;html=1;fixedSize=1;" parent="unwxUYylMrVXpR_ENPoR-3" vertex="1">
          <mxGeometry x="55" y="214" width="150" height="40" as="geometry" />
        </mxCell>
        <mxCell id="3" value="Queue/&lt;br&gt;List" style="shape=dataStorage;whiteSpace=wrap;html=1;fixedSize=1;" parent="unwxUYylMrVXpR_ENPoR-3" vertex="1">
          <mxGeometry x="270" y="210" width="140" height="80" as="geometry" />
        </mxCell>
        <mxCell id="unwxUYylMrVXpR_ENPoR-4" value="Error/ Warning" style="swimlane;html=1;startSize=20;horizontal=0;" parent="unwxUYylMrVXpR_ENPoR-2" vertex="1">
          <mxGeometry y="330" width="820" height="120" as="geometry" />
        </mxCell>
        <mxCell id="unwxUYylMrVXpR_ENPoR-6" value="" style="edgeStyle=orthogonalEdgeStyle;rounded=0;jumpStyle=arc;orthogonalLoop=1;jettySize=auto;html=1;fontFamily=Helvetica;fontSize=12;fontColor=#FFFFFF;dashed=1;" parent="unwxUYylMrVXpR_ENPoR-4" edge="1">
          <mxGeometry relative="1" as="geometry">
            <mxPoint x="50.00000000000023" y="58.99999999999977" as="sourcePoint" />
            <mxPoint x="120.00000000000023" y="58.99999999999977" as="targetPoint" />
          </mxGeometry>
        </mxCell>
        <mxCell id="unwxUYylMrVXpR_ENPoR-7" value="raised errors" style="text;html=1;strokeColor=none;fillColor=none;align=center;verticalAlign=middle;whiteSpace=wrap;rounded=0;labelBackgroundColor=#FFFFFF;fontFamily=Helvetica;fontSize=12;fontColor=#000000;" parent="unwxUYylMrVXpR_ENPoR-4" vertex="1">
          <mxGeometry x="119" y="45" width="81" height="30" as="geometry" />
        </mxCell>
        <mxCell id="ZTVlnvCu1oPu2bua0lhl-4" value="raised Error" style="ellipse;whiteSpace=wrap;html=1;fillColor=#e51400;fontColor=#ffffff;strokeColor=#B20000;" parent="unwxUYylMrVXpR_ENPoR-4" vertex="1">
          <mxGeometry x="250" y="33.5" width="136" height="53" as="geometry" />
        </mxCell>
        <mxCell id="ZTVlnvCu1oPu2bua0lhl-3" value="raised Warning" style="ellipse;whiteSpace=wrap;html=1;fillColor=#f0a30a;fontColor=#000000;strokeColor=#BD7000;" parent="unwxUYylMrVXpR_ENPoR-4" vertex="1">
          <mxGeometry x="442" y="37" width="136" height="53" as="geometry" />
        </mxCell>
        <mxCell id="unwxUYylMrVXpR_ENPoR-5" value="Notes" style="swimlane;html=1;startSize=20;horizontal=0;" parent="unwxUYylMrVXpR_ENPoR-2" vertex="1">
          <mxGeometry y="450" width="820" height="120" as="geometry" />
        </mxCell>
        <mxCell id="ZTVlnvCu1oPu2bua0lhl-8" value="note to explain" style="shape=note;strokeWidth=2;fontSize=14;size=14;whiteSpace=wrap;html=1;fillColor=#fff2cc;strokeColor=#d6b656;fontColor=#666600;opacity=50;" parent="unwxUYylMrVXpR_ENPoR-5" vertex="1">
          <mxGeometry x="57.5" y="20" width="110.00000000000001" height="80" as="geometry" />
        </mxCell>
        <mxCell id="ZTVlnvCu1oPu2bua0lhl-9" value="note for improvement" style="shape=note;strokeWidth=2;fontSize=14;size=20;whiteSpace=wrap;html=1;fillColor=#76608a;strokeColor=#432D57;fontColor=#ffffff;" parent="unwxUYylMrVXpR_ENPoR-5" vertex="1">
          <mxGeometry x="229.9999999999999" y="20" width="110.00000000000001" height="80" as="geometry" />
        </mxCell>
      </root>
    </mxGraphModel>
  </diagram>
</mxfile>
